<svg width="400.94374999999997px" height="122px" xmlns="http://www.w3.org/2000/svg" viewBox="49.52812500000002 14 400.94374999999997 122" style="background: rgba(0, 0, 0, 0);" preserveAspectRatio="xMidYMid"><defs><linearGradient id="editing-gradow-gradient" x1="0" x2="1" y1="0.5" y2="0.5" gradientUnits="objectBoundingBox"><stop offset="0" stop-color="#00ff6c"></stop><stop offset="1" stop-color="#0ff"></stop></linearGradient><filter id="editing-gradow-filter" x="-100%" y="-100%" width="300%" height="300%"><feFlood flood-color="#fffcd9" result="flood"></feFlood><feComposite operator="in" in2="SourceAlpha" in="flood" result="shadow"></feComposite><feOffset dx="-4" dy="-4" in="SourceGraphic" result="offset-1"></feOffset><feOffset dx="4" dy="4" in="shadow" result="offset-2"></feOffset><feMerge><feMergeNode in="offset-2"></feMergeNode><feMergeNode in="offset-1"></feMergeNode></feMerge></filter></defs><g filter="url(#editing-gradow-filter)"><g transform="translate(111.51380464434624, 99)"><path d="M21.12-17.98L21.12-17.98L21.12-17.98Q23.42-22.08 23.42-26.24L23.42-26.24L23.42-26.24Q23.42-28.99 21.44-28.99L21.44-28.99L21.44-28.99Q19.90-28.99 18.30-26.37L18.30-26.37L18.30-26.37Q16.64-23.74 16.13-20.35L16.13-20.35L12.80 0L-0.45 1.28L6.08-32.64L16.64-33.92L15.49-27.46L15.49-27.46Q18.62-33.92 25.66-33.92L25.66-33.92L25.66-33.92Q29.38-33.92 31.39-32L31.39-32L31.39-32Q33.41-30.08 33.41-26.14L33.41-26.14L33.41-26.14Q33.41-22.21 30.82-19.71L30.82-19.71L30.82-19.71Q28.22-17.22 23.81-17.22L23.81-17.22L23.81-17.22Q21.89-17.22 21.12-17.98ZM54.98-2.69L54.98-2.69L54.98-2.69Q51.90 1.28 44.29 1.28L44.29 1.28L44.29 1.28Q40.32 1.28 37.44-1.12L37.44-1.12L37.44-1.12Q34.56-3.52 34.56-6.98L34.56-6.98L34.56-6.98Q34.56-8.90 34.75-9.86L34.75-9.86L39.04-32.64L52.03-33.92L47.36-9.22L47.36-9.22Q47.10-7.81 47.10-6.98L47.10-6.98L47.10-6.98Q47.10-3.26 49.34-3.26L49.34-3.26L49.34-3.26Q51.84-3.26 53.63-6.66L53.63-6.66L53.63-6.66Q54.21-7.74 54.46-9.15L54.46-9.15L59.01-32.64L71.62-33.92L66.88-8.96L66.88-8.96Q66.69-8 66.69-6.98L66.69-6.98L66.69-6.98Q66.69-5.95 67.26-4.83L67.26-4.83L67.26-4.83Q67.84-3.71 69.70-3.46L69.70-3.46L69.70-3.46Q69.31-1.92 67.97-0.90L67.97-0.90L67.97-0.90Q65.15 1.28 62.11 1.28L62.11 1.28L62.11 1.28Q59.07 1.28 57.28 0.19L57.28 0.19L57.28 0.19Q55.49-0.90 54.98-2.69ZM74.24-3.07L74.24-3.07L82.18-44.80L95.17-46.08L93.18-36.29L93.18-36.29Q92.48-33.28 91.58-31.17L91.58-31.17L91.58-31.17Q92.99-32.96 96.06-33.66L96.06-33.66L96.06-33.66Q96.96-33.92 98.05-33.92L98.05-33.92L98.05-33.92Q104.00-33.92 107.26-30.30L107.26-30.30L107.26-30.30Q110.53-26.69 110.53-19.71L110.53-19.71L110.53-19.71Q110.53-10.62 105.34-4.93L105.34-4.93L105.34-4.93Q99.78 1.28 89.66 1.28L89.66 1.28L89.66 1.28Q82.69 1.28 77.44-1.02L77.44-1.02L77.44-1.02Q75.58-1.86 74.24-3.07ZM90.50-22.40L87.10-3.65L87.10-3.65Q88.45-2.50 90.11-2.50L90.11-2.50L90.11-2.50Q91.78-2.50 92.74-3.14L92.74-3.14L92.74-3.14Q93.70-3.78 94.40-5.06L94.40-5.06L94.40-5.06Q96.32-8.51 97.86-19.07L97.86-19.07L97.86-19.07Q98.30-22.08 98.30-25.09L98.30-25.09L98.30-25.09Q98.30-28.10 97.63-29.06L97.63-29.06L97.63-29.06Q96.96-30.02 95.68-30.02L95.68-30.02L95.68-30.02Q91.78-30.02 90.50-22.40L90.50-22.40ZM140.29-10.82L140.29-10.82L140.29-10.82Q141.89-9.73 141.89-7.33L141.89-7.33L141.89-7.33Q141.89-4.93 140.67-3.39L140.67-3.39L140.67-3.39Q139.46-1.86 137.47-0.83L137.47-0.83L137.47-0.83Q133.38 1.28 128.96 1.28L128.96 1.28L128.96 1.28Q124.54 1.28 121.95 0.32L121.95 0.32L121.95 0.32Q119.36-0.64 117.63-2.43L117.63-2.43L117.63-2.43Q114.24-5.82 114.24-12.03L114.24-12.03L114.24-12.03Q114.24-21.70 119.49-27.58L119.49-27.58L119.49-27.58Q125.12-33.92 134.91-33.92L134.91-33.92L134.91-33.92Q140.99-33.92 144-31.36L144-31.36L144-31.36Q146.24-29.44 146.24-26.30L146.24-26.30L146.24-26.30Q146.24-15.04 126.78-15.04L126.78-15.04L126.78-15.04Q126.53-13.38 126.53-11.97L126.53-11.97L126.53-11.97Q126.53-9.02 127.84-7.90L127.84-7.90L127.84-7.90Q129.15-6.78 131.58-6.78L131.58-6.78L131.58-6.78Q134.02-6.78 136.61-7.90L136.61-7.90L136.61-7.90Q139.20-9.02 140.29-10.82ZM127.23-17.79L127.23-17.79L127.23-17.79Q131.78-17.79 134.40-20.61L134.40-20.61L134.40-20.61Q137.02-23.30 137.02-27.58L137.02-27.58L137.02-27.58Q137.02-29.06 136.48-29.86L136.48-29.86L136.48-29.86Q135.94-30.66 134.85-30.66L134.85-30.66L134.85-30.66Q133.76-30.66 132.83-30.24L132.83-30.24L132.83-30.24Q131.90-29.82 130.94-28.42L130.94-28.42L130.94-28.42Q128.58-25.22 127.23-17.79ZM175.49 1.28L175.49 1.28L175.49 1.28Q167.74 1.28 167.74-4.74L167.74-4.74L167.74-4.74Q167.81-6.40 168.32-9.22L168.32-9.22L169.47-15.10L169.47-15.10Q171.20-23.42 171.20-25.28L171.20-25.28L171.20-25.28Q171.20-28.99 169.02-28.99L169.02-28.99L169.02-28.99Q165.38-28.99 163.46-19.46L163.46-19.46L159.68 0L146.82 1.28L153.47-32.70L163.97-33.92L162.94-27.65L162.94-27.65Q165.95-33.92 175.17-33.92L175.17-33.92L175.17-33.92Q179.65-33.92 181.54-32.03L181.54-32.03L181.54-32.03Q183.42-30.14 183.42-25.92L183.42-25.92L183.42-25.92Q183.42-21.95 181.38-12.67L181.38-12.67L181.38-12.67Q180.42-8.51 180.42-6.94L180.42-6.94L180.42-6.94Q180.42-5.38 181.28-4.48L181.28-4.48L181.28-4.48Q182.14-3.58 183.42-3.46L183.42-3.46L183.42-3.46Q182.78-1.28 180.58 0L180.58 0L180.58 0Q178.37 1.28 175.49 1.28ZM203.90-3.52L203.90-3.52L203.90-3.52Q201.92 1.28 195.58 1.28L195.58 1.28L195.58 1.28Q192.32 1.28 190.27-0.96L190.27-0.96L190.27-0.96Q188.54-2.94 188.54-4.93L188.54-4.93L188.54-4.93Q188.54-10.11 190.91-20.22L190.91-20.22L193.28-32.64L206.27-33.92L202.37-13.70L202.37-13.70Q201.28-8.96 201.28-7.30L201.28-7.30L201.28-7.30Q201.28-3.65 203.90-3.52ZM194.43-41.54L194.43-41.54L194.43-41.54Q194.43-44.03 196.51-45.38L196.51-45.38L196.51-45.38Q198.59-46.72 201.60-46.72L201.60-46.72L201.60-46.72Q204.61-46.72 206.43-45.38L206.43-45.38L206.43-45.38Q208.26-44.03 208.26-41.54L208.26-41.54L208.26-41.54Q208.26-39.04 206.24-37.76L206.24-37.76L206.24-37.76Q204.22-36.48 201.22-36.48L201.22-36.48L201.22-36.48Q198.21-36.48 196.32-37.76L196.32-37.76L196.32-37.76Q194.43-39.04 194.43-41.54ZM240.77-26.62L240.77-26.62L240.77-26.62Q240.77-23.94 238.53-22.27L238.53-22.27L238.53-22.27Q236.29-20.61 232.64-20.61L232.64-20.61L232.64-20.61Q231.10-20.61 230.21-21.06L230.21-21.06L230.21-21.06Q230.91-22.72 231.14-24.80L231.14-24.80L231.14-24.80Q231.36-26.88 231.36-27.46L231.36-27.46L231.36-27.46Q231.36-30.14 229.50-30.14L229.50-30.14L229.50-30.14Q228.22-30.14 226.78-28.54L226.78-28.54L226.78-28.54Q225.34-26.94 224.13-24.45L224.13-24.45L224.13-24.45Q221.44-18.69 221.44-12.86L221.44-12.86L221.44-12.86Q221.44-9.66 222.66-8.22L222.66-8.22L222.66-8.22Q223.87-6.78 226.56-6.78L226.56-6.78L226.56-6.78Q230.27-6.78 233.22-9.86L233.22-9.86L233.22-9.86Q234.05-10.82 234.50-11.90L234.50-11.90L234.50-11.90Q236.93-10.62 236.93-7.10L236.93-7.10L236.93-7.10Q236.93-3.52 232.96-1.15L232.96-1.15L232.96-1.15Q228.86 1.28 222.34 1.28L222.34 1.28L222.34 1.28Q209.34 1.28 209.34-12.48L209.34-12.48L209.34-12.48Q209.34-22.53 215.04-28.29L215.04-28.29L215.04-28.29Q220.54-33.92 230.66-33.92L230.66-33.92L230.66-33.92Q240.77-33.92 240.77-26.62ZM256.45 1.28L256.45 1.28L256.45 1.28Q242.37 1.28 242.37-11.97L242.37-11.97L242.37-11.97Q242.37-21.38 247.55-27.46L247.55-27.46L247.55-27.46Q253.06-33.92 262.59-33.92L262.59-33.92L262.59-33.92Q269.50-33.92 273.02-30.72L273.02-30.72L273.02-30.72Q276.54-27.52 276.54-20.80L276.54-20.80L276.54-20.80Q276.54-10.56 271.04-4.61L271.04-4.61L271.04-4.61Q265.66 1.28 256.45 1.28ZM258.11-26.56L258.11-26.56L258.11-26.56Q257.34-24.83 256.74-22.24L256.74-22.24L256.74-22.24Q256.13-19.65 255.36-15.55L255.36-15.55L255.36-15.55Q254.59-11.46 254.59-6.40L254.59-6.40L254.59-6.40Q254.59-4.74 255.14-3.65L255.14-3.65L255.14-3.65Q255.68-2.56 257.15-2.56L257.15-2.56L257.15-2.56Q258.62-2.56 259.55-3.26L259.55-3.26L259.55-3.26Q260.48-3.97 261.18-5.63L261.18-5.63L261.18-5.63Q262.46-8.58 263.49-14.05L263.49-14.05L263.49-14.05Q264.51-19.52 264.61-21.89L264.61-21.89L264.61-21.89Q264.70-24.26 264.70-26.02L264.70-26.02L264.70-26.02Q264.70-27.78 264.19-28.93L264.19-28.93L264.19-28.93Q263.68-30.08 262.24-30.08L262.24-30.08L262.24-30.08Q260.80-30.08 259.84-29.18L259.84-29.18L259.84-29.18Q258.88-28.29 258.11-26.56Z" fill="url(#editing-gradow-gradient)"></path></g></g><style>text {
  font-size: 64px;
  font-family: Arial Black;
  dominant-baseline: central;
  text-anchor: middle;
}</style></svg>